# xmcd
#
# Track frame offsets:
#	150
#	15820
#	30038
#	43605
#	66942
#	80351
#	93137
#	108884
#	126889
#	141143
#	151133
#	164229
#	180069
#	193126
#	202508
#	216211
#
# Disc length: 3025 seconds
# Revision: 0
# Processed by: cddbd v1.5.2PL0 Copyright (c) Steve Scherf et al.
# Submitted via: dBpowerAMP V12.0
#
DISCID=bb0bcf10
DTITLE=Diana Ross - Blue
DYEAR=2006
DGENRE=R&B
TTITLE0=What A Diff'rence A Day Makes
TTITLE1=No More
TTITLE2=Let's Do It
TTITLE3=I Loves Ya Porgy
TTITLE4=Smile
TTITLE5=But Beautiful
TTITLE6=Had You Been Around
TTITLE7=Little Girl Blue
TTITLE8=Can't Get Started With You
TTITLE9=Love Is Here To Stay
TTITLE10=You've Changed
TTITLE11=My Man (Mon Homme)
TTITLE12=Easy Living
TTITLE13=Solitude
TTITLE14=He's Funny That Way
TTITLE15=T'ain't Nobody's Bizness If I Do
EXTD=
EXTT0=
EXTT1=
EXTT2=
EXTT3=
EXTT4=
EXTT5=
EXTT6=
EXTT7=
EXTT8=
EXTT9=
EXTT10=
EXTT11=
EXTT12=
EXTT13=
EXTT14=
EXTT15=
PLAYORDER=
